<?xml version="1.0" encoding="UTF-8"?>
<svg id="Layer_2" data-name="Layer 2" xmlns="http://www.w3.org/2000/svg" xmlns:xlink="http://www.w3.org/1999/xlink" viewBox="0 0 1732.12 210.12">
  <defs>
    <style>
      .cls-1 {
        fill: url(#linear-gradient-2);
      }

      .cls-2 {
        fill: #fff;
      }

      .cls-3 {
        opacity: .5;
      }

      .cls-4 {
        fill: #0cb4ce;
      }

      .cls-5 {
        fill: #3077ff;
      }

      .cls-6 {
        fill: url(#linear-gradient-3);
      }

      .cls-7 {
        fill: url(#linear-gradient);
      }
    </style>
    <linearGradient id="linear-gradient" x1="244.17" y1="158.42" x2="197.82" y2="113.76" gradientUnits="userSpaceOnUse">
      <stop offset="0" stop-color="#0cb4ce"/>
      <stop offset="1" stop-color="#008c9b"/>
    </linearGradient>
    <linearGradient id="linear-gradient-2" x1="227.68" y1="175.54" x2="181.33" y2="130.87" gradientUnits="userSpaceOnUse">
      <stop offset="0" stop-color="#0cb4ce"/>
      <stop offset="1" stop-color="#0cb4ce"/>
    </linearGradient>
    <linearGradient id="linear-gradient-3" x1="341.78" y1="190.33" x2="285.31" y2="138.92" xlink:href="#linear-gradient"/>
  </defs>
  <g id="uuid-8f55bffc-79ba-4839-a29e-035dce737ede">
    <g>
      <g>
        <path class="cls-2" d="m574.24,145.68c0,36.49-29.73,60.33-66.52,60.33h-86.52V0h80.64C537.75,0,566.88,23.25,566.88,58.85c0,17.07-6.77,30.62-17.95,40.32,15.3,9.71,25.31,25.6,25.31,46.51Zm-105.95-101.54v36.49h33.55c10.59,0,17.95-7.66,17.95-18.24s-7.06-18.24-17.95-18.24h-33.55Zm58.86,98c0-11.48-7.66-19.71-19.43-19.71h-39.43v39.43h39.43c11.77,0,19.43-8.25,19.43-19.72Z"/>
        <path class="cls-2" d="m590.44,0h44.15v206h-44.15V0Z"/>
        <path class="cls-2" d="m800.28,58.85v147.16h-44.15v-13.83c-7.94,10.88-22.66,17.95-42.08,17.95-29.72,0-55.03-21.19-55.03-60.92V58.85h44.15v83.88c0,18.24,11.48,26.79,25.6,26.79,16.18,0,27.37-9.42,27.37-30.32V58.85h44.15Z"/>
        <path class="cls-2" d="m901.54,170.69c12.07,0,22.37-4.71,28.25-11.18l35.32,20.3c-14.42,20.02-36.2,30.31-64.16,30.31-50.32,0-81.52-33.84-81.52-77.7s31.78-77.7,78.28-77.7c42.96,0,74.76,33.26,74.76,77.7,0,6.19-.59,12.07-1.77,17.66h-104.48c5.59,15.3,19.13,20.6,35.32,20.6Zm27.08-53.56c-4.71-17.07-17.95-23.25-31.2-23.25-16.77,0-27.96,8.23-32.08,23.25h63.28Z"/>
        <path class="cls-2" d="m978.36,0h49.44l35.61,144.2L1103.14,0h38.26l39.73,144.2L1216.75,0h49.44l-56.8,206h-53.56l-33.55-121.54-33.54,121.54h-53.57L978.36,0Z"/>
        <path class="cls-2" d="m1412.77,58.85v147.16h-44.14v-13.83c-9.71,11.18-24.12,17.95-43.85,17.95-38.56,0-70.34-33.84-70.34-77.7s31.78-77.7,70.34-77.7c19.72,0,34.13,6.77,43.85,17.96v-13.84h44.14Zm-44.14,73.58c0-22.06-14.71-35.91-35.02-35.91s-35.02,13.84-35.02,35.91,14.72,35.91,35.02,35.91,35.02-13.83,35.02-35.91Z"/>
        <path class="cls-2" d="m1582,58.85l-54.43,147.16h-50.03l-54.45-147.16h48.85l30.61,93.3,30.61-93.3h48.85Z"/>
        <path class="cls-2" d="m1661.19,170.69c12.07,0,22.37-4.71,28.25-11.18l35.32,20.3c-14.41,20.02-36.19,30.31-64.15,30.31-50.33,0-81.53-33.84-81.53-77.7s31.79-77.7,78.29-77.7c42.97,0,74.75,33.26,74.75,77.7,0,6.19-.59,12.07-1.76,17.66h-104.48c5.6,15.3,19.13,20.6,35.32,20.6Zm27.08-53.56c-4.71-17.07-17.96-23.25-31.2-23.25-16.78,0-27.96,8.23-32.07,23.25h63.27Z"/>
      </g>
      <g>
        <g class="cls-3">
          <path class="cls-5" d="m213.79,77.04l-37.71,37.71-48.94,49.03-.09-.09,48.85-48.85,36.28-36.37c.54-.54,1.08-1.08,1.62-1.44Z"/>
        </g>
        <g>
          <path class="cls-7" d="m312.03,105.68l-.36.36-58.09,58.1-26.76,26.76c-20.02,20.02-52.53,20.02-72.55,0l-27.12-27.12,48.94-49.03,37.71-37.71c20.2-18.59,51.45-18.05,71.03,1.44l27.21,27.21Z"/>
          <path class="cls-1" d="m213.79,77.04l-37.71,37.71-48.94,49.03-.09-.09,48.85-48.85,36.28-36.37c.54-.54,1.08-1.08,1.62-1.44Z"/>
        </g>
        <path class="cls-6" d="m340.85,193.32c-7.99,7.99-18.59,12.03-29.09,12.03s-21.1-4.04-29.09-12.03l-29.09-29.18,58.09-58.1,29.18,29.09c16.07,16.07,16.07,42.11,0,58.19Z"/>
        <path class="cls-4" d="m284.82,78.48c-19.57-19.48-50.82-20.02-71.03-1.44-.54.36-1.08.9-1.62,1.44l-36.28,36.37-48.85,48.85.09.09-27.3,27.21c-20.11,20.02-52.53,20.02-72.55,0L0,163.78,148.69,15.08c20.11-20.11,52.53-20.11,72.64,0l27.21,27.21,36.28,36.19Z"/>
        <path class="cls-5" d="m213.79,77.04l-37.71,37.71-.18.09,36.28-36.37c.54-.54,1.08-1.08,1.62-1.44Z"/>
      </g>
    </g>
  </g>
</svg>